<?xml version="1.0" standalone="no"?>
<!DOCTYPE svg PUBLIC "-//W3C//DTD SVG 20010904//EN"
 "http://www.w3.org/TR/2001/REC-SVG-20010904/DTD/svg10.dtd">
<svg version="1.0" xmlns="http://www.w3.org/2000/svg"
 width="500.000000pt" height="500.000000pt" viewBox="0 0 500.000000 500.000000"
 preserveAspectRatio="xMidYMid meet">

<g transform="translate(0.000000,500.000000) scale(0.100000,-0.100000)"
fill="#000000" stroke="none">
<path d="M914 3833 c-36 -13 -69 -39 -69 -57 -1 -13 -102 -215 -117 -233 -22
-28 -87 -2 -128 50 -13 16 -31 27 -46 27 -14 0 -42 9 -64 20 -45 23 -66 24
-134 6 -33 -9 -53 -20 -61 -37 -19 -35 -11 -106 19 -174 14 -33 26 -68 26 -77
0 -9 5 -20 11 -24 8 -5 10 3 7 25 -7 48 14 39 87 -36 63 -64 75 -88 56 -108
-15 -17 -80 -188 -91 -240 -20 -99 3 -143 63 -123 18 6 41 19 53 29 11 11 26
19 32 19 7 0 12 7 12 16 0 20 73 119 78 105 2 -5 -4 -23 -12 -40 -13 -25 -16
-76 -16 -313 0 -375 8 -408 117 -485 41 -29 54 -33 111 -33 54 0 71 4 98 25
18 14 38 41 45 60 7 19 15 35 19 35 3 0 20 -21 39 -46 19 -25 44 -50 55 -56
12 -5 37 -18 56 -29 43 -23 82 -24 143 -3 42 14 50 22 73 70 14 29 29 56 34
59 6 3 29 -13 52 -36 24 -23 57 -47 75 -55 17 -8 34 -18 38 -24 3 -5 35 -10
70 -10 60 0 66 2 112 41 79 68 78 62 80 418 1 172 5 316 8 319 10 11 40 -15
38 -33 0 -9 -4 -169 -8 -354 -8 -368 -6 -381 43 -381 15 0 35 -9 45 -20 18
-21 80 -28 105 -11 10 6 14 91 17 392 l4 384 23 12 c12 7 33 10 45 7 21 -6 23
-3 23 34 0 50 -8 72 -26 72 -7 0 -20 10 -28 21 -14 20 -23 22 -178 23 -90 0
-166 5 -169 9 -9 12 -112 19 -127 9 -11 -7 -15 -85 -19 -358 -2 -192 -9 -357
-14 -366 -5 -10 -17 -18 -25 -18 -8 0 -13 4 -10 8 8 13 9 664 1 685 -4 9 -15
17 -24 17 -9 0 -21 10 -26 23 -7 14 -17 21 -30 19 -11 -2 -36 -5 -55 -6 -19
-2 -38 -4 -42 -5 -4 -1 -10 -16 -14 -35 l-6 -35 -42 44 c-41 41 -92 65 -142
65 -17 0 -23 8 -29 38 -6 35 -48 102 -63 102 -4 0 -40 32 -80 71 -62 61 -72
74 -65 94 9 25 68 95 80 95 11 0 63 87 63 105 0 8 5 17 10 20 6 3 10 16 10 29
0 12 5 27 11 33 13 13 -29 93 -49 93 -7 0 -15 7 -18 15 -4 8 -12 15 -20 15 -8
0 -14 5 -14 10 0 14 -79 9 -126 -7z m-179 -725 c-11 -6 -28 -18 -37 -26 -11
-9 -18 -11 -18 -4 0 12 47 41 65 41 6 0 1 -5 -10 -11z m538 -37 c18 -7 35 -26
47 -53 18 -40 20 -68 20 -355 l0 -312 -26 -48 c-37 -66 -49 -78 -93 -91 -81
-25 -107 -16 -160 52 l-31 39 -1 201 c0 110 -4 252 -7 314 -4 63 -4 116 1 119
4 2 7 15 7 29 0 36 17 21 32 -27 6 -23 18 -43 25 -46 10 -4 13 -55 13 -237 0
-181 3 -244 16 -285 17 -57 44 -78 88 -67 49 12 52 36 46 347 l-5 285 -29 35
c-52 62 -89 61 -107 -5 l-12 -41 -10 32 c-9 31 -7 36 39 83 44 45 53 50 84 46
19 -2 48 -9 63 -15z m-450 -8 c15 -13 18 -14 12 -3 -8 13 -7 13 8 1 9 -7 17
-20 17 -27 0 -8 10 -14 23 -14 33 0 47 -19 47 -62 0 -27 -6 -41 -20 -50 -11
-7 -20 -19 -20 -27 0 -10 -3 -11 -14 -2 -7 6 -11 22 -8 36 3 21 -4 34 -38 65
-48 44 -74 50 -89 21 -17 -30 -15 -604 1 -633 25 -44 41 -58 68 -58 37 0 54
23 60 84 5 49 6 51 35 51 29 0 30 -1 28 -48 -2 -61 -37 -133 -74 -152 -15 -8
-53 -15 -83 -15 -47 0 -57 4 -75 26 -37 48 -43 92 -48 380 -5 274 -5 282 18
343 16 47 31 68 53 82 39 24 74 24 99 2z m691 -34 c3 -17 6 -152 6 -300 l0
-269 -22 0 -22 0 22 -16 c12 -8 22 -24 22 -35 0 -11 9 -37 20 -59 l20 -39 -22
-7 -23 -7 23 -8 c12 -5 22 -13 22 -19 0 -21 37 -9 48 15 6 14 16 25 22 25 26
0 32 66 36 399 2 190 6 346 8 349 3 2 22 1 44 -3 l38 -6 2 -321 c1 -186 -3
-340 -9 -366 -7 -34 -22 -58 -59 -94 -48 -47 -51 -48 -109 -48 -52 0 -65 4
-91 28 -57 52 -67 137 -62 564 l2 237 28 4 c15 2 32 5 38 6 6 0 14 -13 18 -30z
m587 -5 c5 -3 9 -12 9 -19 0 -10 -11 -14 -35 -13 -38 1 -65 -16 -65 -42 0 -9
-3 -20 -7 -23 -3 -4 -6 -170 -7 -369 l-1 -363 -38 -9 c-30 -8 -40 -7 -48 5 -6
8 -7 82 -4 184 8 214 8 208 23 218 17 11 15 36 -4 44 -13 5 -14 23 -8 134 6
109 4 133 -10 163 -19 40 -36 55 -36 31 0 -9 -6 -15 -12 -12 -7 2 -12 10 -10
16 1 6 -5 14 -13 17 -8 4 -15 17 -15 31 l0 26 136 -7 c75 -3 140 -9 145 -12z
m-1111 -60 c0 -13 -4 -24 -10 -24 -5 0 -10 14 -10 31 0 17 4 28 10 24 6 -3 10
-17 10 -31z m-157 -54 c-9 -33 20 -64 71 -78 63 -17 66 -16 66 16 0 15 5 34
10 42 7 11 10 1 10 -35 0 -27 2 -160 6 -294 5 -180 4 -242 -5 -237 -6 4 -11
26 -10 49 3 86 -30 117 -106 103 -35 -7 -35 -7 -35 -60 0 -36 -5 -58 -15 -66
-9 -7 -18 -10 -21 -7 -11 10 -4 547 8 572 13 28 29 25 21 -5z m387 -273 c1
-295 -4 -327 -50 -297 -8 5 -10 10 -5 10 6 0 10 94 10 263 0 194 4 270 13 292
25 57 31 4 32 -268z m177 -19 c-3 -7 -5 -2 -5 12 0 14 2 19 5 13 2 -7 2 -19 0
-25z"/>
<path d="M3562 3750 c-75 -56 -111 -161 -79 -231 20 -44 101 -106 149 -115 24
-4 53 -6 66 -5 18 2 22 -3 22 -24 0 -15 4 -24 10 -20 6 4 8 10 5 15 -8 13 6
41 19 37 11 -4 13 -38 15 -235 1 -57 4 -81 12 -76 7 4 10 59 7 169 l-3 163 32
45 c39 53 56 94 54 125 0 13 6 36 14 51 14 27 13 30 -16 54 -17 14 -37 23 -45
20 -10 -3 -12 0 -9 10 5 11 0 14 -19 12 -19 -2 -26 2 -26 13 0 15 -2 15 -10 2
-6 -9 -13 -11 -17 -5 -5 6 -17 11 -28 13 -11 1 -40 5 -65 8 -40 5 -50 2 -88
-26z"/>
<path d="M3442 3390 c-31 -29 -62 -94 -62 -128 0 -37 38 -65 95 -72 35 -4 41
-9 46 -35 6 -25 7 -22 8 18 1 39 4 47 19 47 13 0 22 12 30 39 18 60 15 95 -13
125 -31 33 -90 36 -123 6z"/>
<path d="M3341 3055 c-26 -34 -26 -46 -1 -95 11 -22 20 -47 20 -57 0 -10 7
-28 15 -40 9 -12 27 -72 40 -133 l26 -111 -22 -80 c-12 -44 -32 -95 -44 -114
-13 -18 -21 -36 -17 -39 3 -4 -10 -38 -28 -77 -29 -59 -38 -69 -55 -65 -11 3
-39 6 -63 6 -36 0 -44 4 -55 27 -9 21 -9 27 1 31 8 2 12 36 12 118 0 127 -9
112 74 129 55 11 74 71 37 114 -15 17 -32 23 -70 25 -63 2 -70 10 -41 41 13
14 18 25 12 25 -19 0 -16 156 3 164 10 4 15 -1 15 -14 0 -11 5 -20 10 -20 6 0
10 5 10 10 0 6 18 17 39 26 22 8 42 23 45 31 11 28 -5 83 -28 95 -26 15 -236
19 -253 6 -10 -8 -13 -111 -13 -452 0 -242 4 -447 9 -455 14 -22 245 -20 269
2 15 13 25 15 53 7 18 -6 47 -10 63 -10 37 0 96 36 96 59 0 28 41 141 50 136
4 -2 18 -31 30 -62 46 -117 80 -141 149 -107 45 22 53 50 29 97 -11 22 -18 40
-16 42 2 2 26 -26 54 -63 67 -90 130 -135 231 -168 71 -23 93 -26 155 -21 99
9 218 47 286 93 67 44 151 128 171 170 7 16 17 36 21 44 25 51 -20 318 -72
433 -54 118 -191 217 -302 217 -166 0 -382 -128 -468 -278 -18 -32 -33 -59
-33 -62 -3 -27 -29 -80 -40 -80 -18 0 -25 -32 -26 -125 l-1 -80 -34 105 c-19
58 -34 117 -34 132 0 15 20 78 43 140 98 253 90 295 -55 289 -32 -1 -67 -55
-88 -133 -16 -60 -30 -52 -30 17 0 29 -3 61 -6 70 -8 20 -68 51 -116 60 -31 6
-38 3 -57 -20z m98 -32 c15 -12 28 -46 42 -103 37 -152 59 -159 96 -31 30 107
50 141 81 141 28 0 30 8 -39 -177 -46 -123 -56 -175 -38 -208 3 -6 30 -88 59
-184 l55 -173 -24 -19 c-22 -18 -23 -20 -7 -44 9 -14 12 -25 7 -25 -14 0 -38
43 -70 124 -17 41 -40 85 -53 98 -13 13 -28 33 -34 43 -10 18 -11 18 -27 -5
-9 -14 -26 -54 -38 -90 -33 -101 -41 -115 -73 -118 -25 -3 -28 -6 -22 -33 7
-35 -11 -39 -20 -4 -4 17 2 38 19 67 34 60 93 212 108 281 7 31 16 57 21 57 4
0 8 11 8 25 0 14 -6 25 -13 25 -9 0 -21 34 -36 99 -12 55 -29 105 -36 111 -8
7 -15 24 -15 39 0 14 -9 41 -20 58 -11 18 -17 39 -14 48 8 20 57 19 83 -2z
m-271 0 c-47 -3 -60 -8 -69 -25 -14 -27 -6 -225 10 -241 6 -6 11 -25 11 -43 0
-24 7 -38 27 -52 l27 -20 -31 4 c-51 6 -56 -9 -51 -165 2 -77 9 -145 15 -153
6 -7 13 -32 16 -55 l5 -43 -34 0 c-32 0 -34 -2 -34 -32 0 -17 -2 -29 -6 -26
-3 3 -6 197 -7 432 l-2 426 90 -2 c67 -1 75 -3 33 -5z m1135 -70 c-13 -2 -33
-2 -45 0 -13 2 -3 4 22 4 25 0 35 -2 23 -4z m104 -97 c51 -26 109 -93 150
-174 27 -54 30 -132 9 -233 -31 -143 -116 -251 -226 -287 -64 -22 -188 -32
-257 -22 -117 16 -246 121 -275 224 -22 78 -14 163 23 256 31 77 40 89 103
142 38 32 92 69 121 83 114 56 255 61 352 11z"/>
<path d="M4195 2747 c-14 -11 -17 -22 -13 -53 13 -86 45 -119 78 -79 21 25
-12 145 -39 145 -4 0 -15 -6 -26 -13z"/>
<path d="M4013 2684 c-17 -7 -16 -57 1 -99 12 -27 21 -35 40 -35 34 0 44 39
25 94 -14 40 -35 53 -66 40z"/>
<path d="M4372 2651 c-12 -7 -12 -19 -2 -65 23 -110 -24 -206 -124 -252 -94
-44 -176 -25 -249 55 -34 37 -43 63 -49 136 -3 25 -8 31 -32 33 l-29 4 5 -69
c9 -123 68 -197 187 -233 80 -25 126 -25 195 1 61 22 101 65 139 146 17 37 22
66 21 128 0 105 -20 143 -62 116z"/>
<path d="M2255 3063 c-22 -3 -44 -8 -48 -12 -13 -13 -11 -711 2 -744 6 -16 11
-40 11 -53 0 -17 18 -44 51 -80 l52 -54 66 0 c75 1 87 6 162 73 l54 47 1 278
c2 373 5 471 14 412 3 -25 5 -194 4 -377 -2 -271 0 -334 11 -343 8 -6 36 -14
64 -17 40 -4 58 -1 85 15 29 17 36 18 46 7 9 -11 27 -13 74 -8 33 3 67 10 74
16 9 7 12 57 12 187 0 173 -1 178 -22 192 -22 15 -22 16 -5 49 16 30 18 54 15
190 -3 153 -4 157 -28 178 -36 30 -81 40 -203 43 -103 3 -110 2 -127 -20 -17
-21 -19 -21 -25 -4 -8 26 -111 40 -133 19 -11 -12 -15 -83 -19 -373 -4 -337
-6 -360 -24 -379 -13 -14 -22 -16 -30 -8 -7 7 -11 128 -12 372 l-2 362 -25 19
c-14 11 -32 19 -40 18 -8 -1 -33 -3 -55 -5z m45 -46 c6 -419 4 -597 -7 -597
-7 0 -1 -11 12 -25 14 -13 25 -32 25 -42 1 -10 9 -34 19 -53 l19 -35 -26 -12
c-25 -10 -25 -11 -5 -12 12 -1 25 -6 29 -12 4 -8 -7 -10 -39 -8 l-46 4 32 -35
c24 -27 21 -25 -12 6 -31 29 -46 54 -53 85 -6 24 -12 202 -13 395 l-3 350 34
1 c19 1 34 -4 34 -10z m249 -286 c1 -364 -2 -383 -73 -457 -29 -30 -55 -54
-59 -54 -11 0 6 34 25 50 32 25 40 122 36 425 -1 17 0 99 1 183 l2 152 33 0
34 0 1 -299z m345 279 c22 -17 14 -248 -9 -284 -15 -23 -15 -25 10 -44 15 -12
21 -23 15 -27 -13 -8 -13 -48 0 -61 6 -6 13 -70 16 -142 4 -115 2 -132 -12
-140 -9 -5 -26 -7 -37 -4 -18 5 -20 2 -14 -38 4 -32 3 -40 -6 -31 -8 8 -13 60
-15 144 -1 73 -4 138 -7 145 -2 7 -16 16 -29 22 -14 5 -26 19 -28 32 -2 15
-11 24 -26 26 l-24 4 4 -159 3 -158 -32 -3 c-30 -3 -33 -7 -33 -35 0 -17 -4
-27 -8 -21 -5 5 -6 140 -3 299 4 186 2 324 -5 385 -6 52 -9 99 -6 103 7 14
229 2 246 -13z m-85 -607 c-1 -62 -5 -99 -10 -91 -13 19 -11 211 1 203 6 -4
10 -50 9 -112z"/>
<path d="M2726 3002 c-12 -20 -5 -210 8 -221 7 -6 11 -22 9 -35 -7 -34 13 -66
42 -66 13 0 27 5 31 11 4 7 8 57 9 113 2 104 -9 146 -40 146 -8 0 -15 12 -17
27 -3 28 -30 43 -42 25z m62 -189 l-2 -108 -5 100 c-3 55 -5 103 -3 108 9 22
12 -4 10 -100z"/>
<path d="M1435 2120 c3 -5 8 -10 11 -10 2 0 4 5 4 10 0 6 -5 10 -11 10 -5 0
-7 -4 -4 -10z"/>
<path d="M1530 2097 c-59 -31 -79 -50 -86 -80 -3 -18 -10 -36 -13 -42 -10 -14
-7 -54 7 -88 7 -16 12 -35 12 -43 0 -22 61 -54 104 -54 38 0 39 0 33 -33 -6
-36 8 -74 17 -47 2 8 7 27 10 43 4 15 11 27 17 27 8 0 9 -30 4 -100 -5 -66 -4
-100 3 -100 6 0 13 35 17 78 10 125 16 145 50 153 16 5 48 4 72 -2 25 -5 49
-7 54 -4 5 4 12 0 15 -8 9 -25 170 -11 289 23 39 12 35 12 400 13 l310 2 11
-34 c11 -34 11 -34 23 -12 10 18 15 20 27 10 8 -6 14 -22 14 -35 0 -27 15 -32
24 -9 3 9 18 15 36 15 49 0 157 56 164 85 4 14 11 25 16 25 6 0 10 7 10 15 0
9 -6 12 -17 8 -11 -4 -14 -3 -9 5 10 17 -3 52 -20 52 -17 0 -18 12 -1 29 10
11 9 13 -5 8 -10 -3 -20 -2 -23 3 -4 6 -20 10 -36 10 -21 0 -32 6 -39 23 -5
12 -9 17 -9 10 -1 -13 -33 -27 -66 -28 -11 -1 -31 -3 -45 -4 -23 -2 -23 -3 -5
-10 18 -8 16 -10 -15 -23 -29 -13 -102 -15 -425 -16 l-390 0 -80 31 c-44 17
-86 30 -92 29 -7 -2 -13 1 -13 7 0 5 -17 11 -37 14 -50 7 -65 11 -83 22 -16
10 -32 14 -65 17 -11 1 -29 8 -40 15 -25 17 -93 17 -125 0z"/>
<path d="M1738 1693 c7 -3 16 -2 19 1 4 3 -2 6 -13 5 -11 0 -14 -3 -6 -6z"/>
<path d="M1828 1693 c7 -3 16 -2 19 1 4 3 -2 6 -13 5 -11 0 -14 -3 -6 -6z"/>
<path d="M1197 1408 c-9 -5 -17 -18 -17 -28 0 -10 -4 -22 -10 -25 -5 -3 -10 0
-10 8 0 23 -35 47 -68 47 -28 0 -31 -2 -22 -17 36 -64 60 -159 60 -242 0 -84
1 -86 27 -98 59 -28 63 -22 64 80 0 50 6 110 14 132 12 39 13 36 14 -65 1 -84
5 -109 19 -126 48 -57 126 -58 144 -2 3 8 13 5 33 -10 35 -28 82 -28 111 -1
19 18 25 19 43 7 16 -9 25 -10 39 -2 9 6 32 9 50 6 l34 -4 -3 63 c-1 35 -4 69
-8 74 -3 6 -4 42 -2 81 2 67 1 72 -24 93 -23 17 -40 21 -106 20 l-79 -1 -1
-66 c-1 -37 -3 -56 -6 -42 -12 78 -15 90 -24 85 -5 -4 -9 1 -9 9 0 19 -40 22
-57 5 -9 -9 -16 -8 -28 5 -18 18 -80 22 -90 6 -8 -12 -45 -13 -45 -1 0 14 -25
20 -43 9z m-59 -55 c7 -24 18 -43 23 -43 5 0 14 20 21 45 8 31 17 45 29 45 16
0 16 -7 -7 -87 -15 -58 -24 -115 -24 -165 0 -71 -2 -78 -20 -78 -19 0 -20 6
-19 88 1 76 -3 99 -29 166 -29 75 -30 77 -9 74 14 -2 25 -16 35 -45z m218 39
c25 -16 32 -53 32 -162 0 -125 -11 -163 -49 -173 -26 -7 -55 6 -67 31 -5 9
-10 74 -11 144 -2 116 -1 128 18 147 21 21 56 27 77 13z m93 -126 c-1 -76 3
-132 10 -145 7 -11 9 -21 6 -21 -4 0 -3 -5 1 -12 5 -8 13 -4 26 11 15 20 18
42 18 157 0 112 2 134 15 134 18 0 17 8 15 -155 -1 -117 -3 -132 -22 -152 -46
-49 -94 -16 -98 67 -2 25 -2 89 -1 143 1 80 4 97 16 97 14 0 16 -18 14 -124z
m222 103 c11 -18 9 -99 -2 -121 -6 -10 -5 -19 1 -23 13 -8 13 -122 -1 -130
-19 -12 -25 4 -28 83 -1 22 -6 32 -17 32 -13 0 -15 -10 -12 -60 3 -55 1 -60
-17 -60 -20 0 -21 6 -20 151 l0 151 44 -5 c24 -3 47 -11 52 -18z m-174 -211
c-2 -18 -4 -4 -4 32 0 36 2 50 4 33 2 -18 2 -48 0 -65z"/>
<path d="M1302 1343 c-11 -28 -6 -223 6 -235 6 -6 18 -8 26 -5 13 5 16 26 16
120 0 74 -4 117 -12 125 -17 17 -27 15 -36 -5z m35 -100 c-3 -10 -5 -4 -5 12
0 17 2 24 5 18 2 -7 2 -21 0 -30z m0 -115 c-3 -8 -6 -5 -6 6 -1 11 2 17 5 13
3 -3 4 -12 1 -19z"/>
<path d="M1610 1311 c0 -39 4 -51 16 -51 12 0 14 10 12 47 -4 66 -28 70 -28 4z"/>
<path d="M2641 1397 c-4 -12 -11 -29 -13 -37 -5 -12 -7 -11 -14 5 -13 32 -31
45 -63 45 -30 0 -41 -13 -21 -25 6 -3 10 -12 10 -18 0 -7 -5 -4 -11 6 -9 16
-22 18 -77 16 -37 -1 -78 3 -92 8 -28 12 -46 8 -73 -16 -17 -14 -20 -14 -32 2
-16 23 -105 25 -105 2 0 -8 -4 -15 -10 -15 -5 0 -10 7 -10 15 0 11 -12 15 -50
15 -44 0 -50 -3 -50 -21 l0 -20 -26 20 c-23 18 -41 21 -125 21 l-99 0 -1 -77
c-2 -158 2 -258 10 -266 4 -4 21 -9 37 -10 l29 -2 0 64 c0 42 4 66 13 68 8 3
12 -9 12 -44 0 -42 3 -49 27 -60 32 -15 60 -17 65 -3 4 11 88 -8 88 -21 0 -12
77 -11 100 1 13 7 21 7 25 0 8 -13 78 -13 91 0 7 7 22 5 48 -5 35 -15 40 -15
62 0 20 13 24 24 25 73 2 79 1 83 -30 122 -48 62 -48 64 -7 57 32 -5 38 -3 46
16 6 14 9 -29 9 -124 1 -143 2 -147 24 -153 58 -15 57 -19 57 139 0 145 0 145
23 145 33 0 57 -81 52 -173 -4 -59 -1 -70 17 -87 12 -11 32 -20 45 -20 22 0
23 3 23 81 0 79 15 165 31 183 5 6 9 -46 8 -114 0 -106 2 -126 17 -137 21 -15
236 -16 245 -1 7 11 -25 48 -41 48 -5 0 -10 20 -10 45 0 25 5 46 10 46 6 1 16
2 22 3 16 1 24 36 9 36 -6 0 -11 6 -11 14 0 8 -7 16 -15 20 -19 7 -20 50 -2
65 8 6 17 8 20 5 3 -3 11 -3 16 1 8 4 6 16 -6 36 -15 26 -23 29 -65 29 l-48 0
-1 -157 c0 -87 -3 -152 -6 -145 -2 6 -13 12 -24 12 -20 0 -22 22 -21 205 0 56
-20 85 -60 85 -13 0 -38 4 -56 9 -29 9 -34 7 -41 -12z m-51 -39 c20 -56 35
-57 50 -3 7 25 19 45 26 45 18 0 18 -2 -6 -85 -13 -46 -20 -100 -20 -157 0
-81 -2 -88 -20 -88 -18 0 -20 7 -20 78 0 72 -15 137 -55 235 -5 13 -2 17 12
17 13 0 23 -13 33 -42z m-720 19 c0 -7 -10 -13 -21 -14 -29 -2 -29 -4 -31 -54
-2 -71 1 -79 22 -79 11 0 20 -4 20 -9 0 -5 -9 -11 -20 -14 -17 -4 -20 -14 -20
-71 0 -52 -3 -66 -15 -66 -13 0 -15 24 -15 160 l0 160 40 0 c26 0 40 -5 40
-13z m121 -8 c10 -17 9 -99 -2 -120 -4 -9 -4 -20 1 -25 4 -5 10 -35 12 -66 2
-43 -1 -59 -11 -63 -23 -9 -27 2 -30 83 -1 22 -6 32 -17 32 -13 0 -15 -10 -12
-60 3 -55 1 -60 -18 -60 -21 0 -21 4 -20 151 l1 151 44 -5 c24 -3 47 -11 52
-18z m129 6 c0 -9 -9 -15 -25 -15 -24 0 -25 -3 -25 -54 0 -49 2 -55 23 -58 27
-4 26 -22 -3 -26 -18 -3 -20 -11 -20 -68 0 -63 3 -69 38 -65 6 1 12 -3 12 -9
0 -5 -18 -10 -40 -10 l-40 0 0 160 0 160 40 0 c29 0 40 -4 40 -15z m120 1 c0
-8 -10 -16 -22 -18 -20 -3 -23 -9 -23 -53 0 -44 3 -50 23 -53 31 -5 29 -32 -3
-32 -24 0 -25 -2 -25 -65 0 -65 5 -72 43 -66 4 0 7 -4 7 -9 0 -6 -17 -10 -38
-10 l-38 0 -1 160 0 160 38 0 c27 0 39 -4 39 -14z m128 2 c14 -14 16 -58 3
-58 -5 0 -11 9 -14 21 -9 32 -41 20 -45 -16 -2 -22 6 -40 32 -70 32 -35 36
-46 36 -95 0 -61 -19 -100 -50 -100 -25 0 -59 37 -55 58 2 9 4 20 4 25 2 18
21 5 21 -15 0 -35 16 -56 32 -40 15 15 17 120 3 130 -27 18 -55 68 -55 96 0
60 54 98 88 64z m394 -130 l3 -143 33 -3 c53 -5 40 -30 -19 -34 -28 -1 -53 -1
-55 1 -2 2 -4 76 -4 163 0 151 1 158 20 158 18 0 20 -8 22 -142z m178 128 c0
-8 -10 -16 -22 -18 -20 -3 -23 -10 -26 -55 -3 -53 1 -58 36 -54 6 1 12 -5 12
-14 0 -9 -9 -15 -25 -15 -24 0 -25 -2 -25 -65 0 -63 1 -65 25 -65 14 0 25 -4
25 -10 0 -5 -17 -10 -39 -10 l-39 0 0 160 0 160 39 0 c27 0 39 -4 39 -14z
m-423 -13 c2 -6 -6 -13 -19 -15 -22 -3 -22 -5 -23 -148 0 -131 -2 -145 -18
-148 -17 -3 -18 6 -15 138 3 125 1 143 -14 154 -10 7 -18 19 -18 25 0 16 102
10 107 -6z m-637 -79 c0 -49 -2 -55 -15 -44 -15 12 -21 81 -8 93 16 17 23 3
23 -49z m268 -2 c2 -32 -1 -52 -7 -52 -6 0 -11 7 -11 15 0 8 -7 15 -15 15 -19
0 -21 66 -2 73 25 10 32 -1 35 -51z m118 30 c1 -6 2 -19 3 -27 0 -8 15 -30 31
-49 34 -38 48 -96 24 -96 -8 0 -14 5 -14 10 0 6 -11 10 -25 10 -20 0 -25 -5
-25 -26 0 -14 5 -34 10 -45 8 -13 7 -19 0 -19 -6 0 -13 7 -16 15 -4 8 -12 15
-20 15 -10 0 -14 13 -14 45 0 39 3 45 20 45 23 0 41 31 22 38 -7 2 -12 10 -12
17 0 7 -7 15 -15 19 -15 5 -21 47 -8 60 11 10 38 2 39 -12z m-116 -177 c0 -37
-4 -65 -10 -65 -5 0 -10 7 -10 15 0 8 -7 15 -15 15 -11 0 -15 12 -15 44 0 43
4 49 43 55 4 0 7 -28 7 -64z"/>
<path d="M1930 1311 c0 -39 4 -51 16 -51 12 0 14 10 12 47 -4 66 -28 70 -28 4z"/>
<path d="M3525 1394 c-12 -13 -19 -14 -28 -5 -16 16 -57 14 -57 -4 0 -8 -5
-15 -10 -15 -6 0 -13 7 -16 15 -4 9 -19 15 -39 15 -19 0 -40 -7 -49 -15 -8 -8
-19 -15 -24 -15 -6 0 -12 7 -16 15 -4 10 -20 15 -51 15 -38 0 -45 -3 -45 -20
0 -11 -3 -20 -6 -20 -3 0 -17 9 -31 20 -16 12 -41 20 -64 20 -34 0 -39 -3 -39
-22 0 -13 -3 -89 -7 -169 l-6 -146 32 -12 c28 -12 49 -11 129 3 12 2 22 0 22
-5 0 -5 20 -9 45 -9 33 0 45 4 45 15 0 12 6 12 37 -5 45 -24 57 -25 72 -6 9
11 19 12 47 3 25 -8 38 -7 46 1 7 7 19 7 36 1 13 -5 45 -9 71 -8 25 1 58 -2
74 -6 26 -7 27 -6 28 36 l1 44 13 -31 c13 -29 68 -64 81 -51 3 2 5 78 6 167 0
141 -2 164 -18 181 -10 11 -27 19 -38 17 -17 -2 -21 -10 -20 -36 l1 -33 -29
36 c-31 37 -64 46 -70 19 -3 -13 -6 -13 -27 5 -29 25 -73 27 -96 5z m85 -16
c11 -12 20 -30 20 -40 0 -25 -36 -23 -43 2 -10 37 -25 21 -29 -30 -4 -63 0
-74 19 -58 8 6 24 13 34 15 17 3 19 -4 19 -86 0 -96 -4 -104 -57 -115 -52 -12
-63 16 -63 157 0 113 8 152 34 169 20 14 45 8 66 -14z m-472 -4 c21 -14 22
-22 22 -148 0 -89 -4 -136 -12 -144 -7 -7 -31 -12 -54 -12 l-41 0 1 38 c1 20
3 92 4 160 l2 122 28 0 c15 0 38 -7 50 -16z m140 -3 c3 -10 -2 -13 -22 -9 -27
5 -28 4 -28 -42 -1 -59 2 -70 22 -70 11 0 20 -7 20 -15 0 -8 -9 -15 -20 -15
-19 0 -22 -9 -22 -55 0 -62 3 -71 30 -82 26 -11 26 -11 -15 -12 l-43 -1 0 161
0 160 37 -3 c20 -2 39 -9 41 -17z m132 -7 c14 -35 13 -44 -5 -44 -8 0 -14 5
-12 11 1 6 -6 16 -16 22 -14 10 -20 9 -27 -3 -17 -26 -11 -47 25 -90 32 -38
35 -47 35 -106 0 -52 -4 -67 -21 -83 l-22 -20 -28 20 c-32 23 -42 79 -14 79
10 0 15 -10 15 -29 0 -27 15 -49 26 -38 7 7 15 49 15 90 1 28 -4 42 -23 57
-32 25 -52 72 -44 104 14 58 78 78 96 30z m70 -134 c0 -136 -2 -160 -15 -160
-13 0 -15 24 -15 160 0 136 2 160 15 160 13 0 15 -24 15 -160z m217 129 c7
-13 18 -37 25 -53 23 -53 38 -44 38 23 0 48 3 61 15 61 13 0 15 -22 15 -142 0
-203 -12 -232 -54 -128 -30 76 -44 75 -48 -2 -2 -36 -7 -62 -13 -61 -6 2 -11
69 -13 169 -2 131 0 165 10 162 7 -3 18 -15 25 -29z m-397 -54 c0 -13 16 -44
35 -69 33 -44 47 -96 25 -96 -5 0 -10 5 -10 10 0 6 -12 10 -26 10 -26 0 -26
-2 -22 -45 3 -25 4 -45 2 -45 -2 0 -13 9 -24 20 -13 13 -20 33 -20 59 0 33 4
40 25 45 14 4 25 11 25 17 0 5 -11 20 -25 33 -27 25 -35 81 -12 89 19 7 27 -2
27 -28z m123 -10 c12 -5 17 -19 17 -46 l0 -40 -30 34 c-45 52 -39 75 13 52z
m210 -1 c9 -4 17 -13 17 -22 0 -12 -3 -13 -12 -4 -7 7 -20 12 -30 12 -10 0
-18 7 -18 16 0 9 5 13 13 10 6 -3 20 -9 30 -12z"/>
<path d="M3558 1208 c-6 -16 -1 -86 6 -105 12 -30 26 1 26 58 0 44 -4 59 -14
59 -8 0 -16 -6 -18 -12z"/>
<path d="M3087 1308 c-4 -24 -5 -79 -4 -123 2 -73 4 -80 22 -80 18 0 20 8 25
90 7 124 3 155 -19 155 -14 0 -20 -10 -24 -42z"/>
</g>
</svg>
