<?xml version="1.0" standalone="no"?>
<!DOCTYPE svg PUBLIC "-//W3C//DTD SVG 20010904//EN"
 "http://www.w3.org/TR/2001/REC-SVG-20010904/DTD/svg10.dtd">
<svg version="1.0" xmlns="http://www.w3.org/2000/svg"
 width="981.000000pt" height="1280.000000pt" viewBox="0 0 981.000000 1280.000000"
 preserveAspectRatio="xMidYMid meet">
<g transform="translate(0.000000,1280.000000) scale(0.100000,-0.100000)"
fill="#000000" stroke="none">
<path d="M589 12767 c-138 -52 -189 -145 -189 -346 0 -195 26 -286 228 -816
72 -187 168 -441 215 -565 47 -124 114 -301 150 -395 59 -155 454 -1192 582
-1530 29 -77 108 -284 175 -460 437 -1149 434 -1143 484 -1370 54 -251 96
-647 96 -910 0 -134 -26 -504 -46 -640 -53 -384 -139 -713 -252 -970 -22 -50
-216 -466 -432 -925 -664 -1414 -1167 -2485 -1352 -2880 -171 -365 -215 -494
-225 -660 -8 -139 19 -215 96 -267 30 -20 47 -23 131 -23 80 0 110 5 181 29
213 73 40 -35 2189 1366 432 281 1129 736 1550 1010 748 487 1590 1036 2950
1922 371 242 1013 659 1425 928 413 269 775 506 805 528 79 58 224 201 279
277 67 91 104 161 140 263 30 87 31 93 31 272 l0 184 -34 97 c-64 179 -203
361 -380 498 -45 35 -232 159 -416 276 -710 452 -6234 3971 -7140 4549 -637
406 -767 481 -920 531 -113 38 -261 50 -321 27z"/>
</g>
</svg>
