<?xml version="1.0" standalone="no"?>
<!DOCTYPE svg PUBLIC "-//W3C//DTD SVG 20010904//EN"
 "http://www.w3.org/TR/2001/REC-SVG-20010904/DTD/svg10.dtd">
<svg version="1.0" xmlns="http://www.w3.org/2000/svg"
 width="500.000000pt" height="500.000000pt" viewBox="0 0 500.000000 500.000000"
 preserveAspectRatio="xMidYMid meet">

<g transform="translate(0.000000,500.000000) scale(0.100000,-0.100000)"
fill="#000000" stroke="none">
<path d="M914 3833 c-38 -13 -67 -37 -57 -47 4 -3 1 -6 -5 -6 -7 0 -11 -3 -10
-7 2 -9 -98 -210 -114 -230 -22 -28 -87 -2 -128 50 -13 16 -31 27 -46 27 -14
0 -42 9 -64 20 -22 11 -50 20 -62 20 -45 -1 -120 -27 -131 -45 -18 -33 -17
-106 2 -144 11 -20 25 -56 32 -81 16 -57 33 -77 27 -32 -7 50 15 41 93 -39 67
-70 68 -72 54 -98 -54 -96 -108 -268 -101 -326 3 -28 15 -46 27 -40 5 4 9 2 9
-4 0 -14 60 7 86 30 11 11 26 19 32 19 7 0 12 7 12 16 0 20 73 119 78 105 2
-5 -4 -23 -12 -40 -13 -25 -16 -76 -16 -312 0 -372 9 -409 118 -487 50 -36 42
-35 215 -20 24 2 41 18 18 18 -8 0 30 89 39 89 3 0 18 -17 35 -39 16 -23 44
-49 63 -60 34 -21 35 -46 1 -35 -10 4 -19 2 -19 -3 0 -14 -72 -56 -89 -53 -12
2 -13 0 -3 -12 10 -12 10 -16 -2 -20 -8 -3 -17 -25 -21 -49 -4 -24 -13 -52
-20 -63 -15 -25 -11 -86 9 -117 14 -23 32 -86 28 -101 -7 -28 83 -69 155 -71
l58 -1 0 -65 c0 -51 3 -65 15 -65 10 0 17 15 21 47 4 25 11 54 16 63 9 15 11
15 23 0 10 -13 11 -37 1 -128 -16 -162 -15 -189 7 -185 14 3 17 15 19 64 2 91
22 253 33 274 5 9 29 22 52 28 46 11 145 5 154 -9 2 -5 18 -6 35 -2 25 5 31 2
36 -16 6 -22 27 -28 38 -11 4 6 15 6 31 0 16 -7 47 -7 84 -1 32 5 67 7 78 5
10 -3 35 1 55 9 19 9 62 19 94 22 32 4 67 12 78 18 11 6 45 12 75 14 30 1 84
4 120 7 129 9 895 16 906 9 15 -11 34 -71 28 -87 -3 -8 0 -17 6 -21 6 -4 15 6
21 24 20 58 66 34 76 -39 6 -41 23 -56 23 -20 0 25 26 38 70 34 22 -2 52 6 81
21 25 13 64 28 86 34 23 6 44 18 47 26 3 8 12 15 19 15 8 0 19 18 26 40 6 22
16 40 20 40 5 0 11 9 14 20 3 11 1 20 -4 20 -5 0 -9 -4 -9 -10 0 -5 -5 -10
-11 -10 -7 0 -10 14 -7 35 2 19 0 35 -5 35 -5 0 -7 7 -4 14 4 10 -2 18 -16 22
-31 9 -38 26 -19 41 15 11 14 12 -10 13 -15 0 -31 6 -35 14 -5 9 -29 16 -63
18 -54 3 -55 4 -52 33 2 26 1 28 -11 14 -20 -27 -83 -59 -94 -48 -14 14 -103
-1 -103 -18 0 -10 7 -12 23 -8 21 7 21 6 5 -11 -43 -44 -107 -50 -483 -45
-137 2 -293 3 -345 2 -52 -1 -185 -3 -295 -4 -188 -1 -203 0 -255 22 -104 43
-185 73 -205 74 -11 1 -30 9 -42 18 -12 8 -37 14 -55 13 -18 -1 -38 2 -44 7
-6 5 -19 10 -30 12 -10 2 -35 11 -54 20 -19 8 -53 18 -74 21 -87 14 -109 27
-65 41 13 4 31 28 46 61 13 29 28 56 34 59 5 3 28 -13 51 -36 24 -23 57 -47
75 -55 17 -8 34 -18 38 -24 3 -5 35 -10 70 -10 60 0 66 2 112 41 79 68 78 62
80 418 1 172 5 316 8 319 12 12 40 -16 39 -39 -1 -13 -5 -173 -9 -355 -8 -361
-6 -374 43 -374 15 0 35 -9 45 -20 11 -13 29 -20 54 -20 72 0 68 -22 69 402
l2 383 23 12 c13 7 34 10 46 7 21 -6 23 -3 23 27 0 45 -10 79 -22 79 -5 0 -18
10 -27 21 -16 20 -27 22 -182 23 -90 0 -167 5 -170 9 -9 12 -112 19 -127 9
-11 -7 -14 -84 -18 -358 -4 -290 -8 -353 -20 -372 -9 -13 -18 -22 -20 -19 -3
3 -5 112 -4 244 3 386 2 440 -9 462 -6 11 -17 18 -24 15 -8 -3 -19 7 -25 21
-10 21 -16 25 -35 19 -12 -5 -34 -9 -49 -10 -16 -1 -32 -2 -38 -3 -5 0 -12
-16 -16 -35 l-6 -35 -42 44 c-41 41 -92 65 -142 65 -17 0 -23 8 -29 38 -6 35
-48 102 -63 102 -4 0 -40 32 -80 71 -62 61 -72 74 -65 94 9 25 68 95 80 95 11
0 63 87 63 105 0 8 5 17 10 20 6 3 10 16 10 29 0 12 4 26 10 32 11 11 -28 94
-44 94 -6 0 -23 11 -38 25 -30 28 -78 31 -144 8z m-179 -725 c-11 -6 -28 -18
-37 -26 -11 -9 -18 -11 -18 -4 0 12 47 41 65 41 6 0 1 -5 -10 -11z m540 -38
c16 -6 33 -26 45 -52 18 -40 20 -68 20 -355 l0 -312 -26 -48 c-37 -66 -49 -78
-93 -91 -81 -25 -107 -16 -160 52 l-31 39 -1 201 c0 110 -4 252 -7 314 -4 63
-4 116 1 119 4 2 7 15 7 29 0 34 16 22 30 -24 7 -20 18 -42 25 -48 10 -8 14
-69 17 -260 3 -206 6 -255 20 -286 18 -40 50 -55 88 -43 42 13 46 51 40 351
l-5 280 -29 35 c-49 58 -106 55 -106 -6 0 -36 -17 -39 -25 -5 -6 27 -1 37 42
80 44 46 51 50 85 45 20 -3 49 -10 63 -15z m-452 -7 c15 -13 18 -14 12 -3 -8
13 -7 13 8 1 9 -7 17 -20 17 -27 0 -8 10 -14 23 -14 33 0 47 -19 47 -62 0 -27
-6 -41 -20 -50 -11 -7 -20 -19 -20 -27 0 -10 -3 -11 -14 -2 -7 6 -11 22 -8 36
3 21 -4 34 -38 65 -48 44 -74 50 -89 21 -16 -28 -15 -604 0 -633 21 -41 42
-58 69 -58 37 0 54 23 60 84 5 49 6 51 35 51 29 0 30 -2 29 -42 0 -22 -9 -62
-18 -88 -24 -61 -62 -85 -138 -85 -49 0 -59 3 -77 26 -37 48 -43 92 -48 380
-5 274 -5 282 18 343 16 47 31 68 53 82 39 24 74 24 99 2z m691 -34 c3 -17 6
-151 6 -296 0 -258 -1 -265 -20 -270 l-21 -6 21 -14 c11 -8 20 -23 20 -34 0
-11 9 -37 20 -59 l20 -39 -22 -7 -23 -7 23 -8 c12 -5 22 -13 22 -19 0 -5 9
-10 20 -10 11 0 20 5 20 10 0 6 9 19 19 29 41 41 42 54 47 409 3 190 7 348 9
350 2 2 21 1 43 -3 l39 -6 1 -314 c1 -173 -3 -337 -8 -365 -8 -41 -19 -60 -59
-100 -49 -49 -51 -50 -110 -50 -52 0 -65 4 -91 28 -57 51 -66 127 -62 549 1
112 -1 209 -3 215 -9 26 12 39 71 47 6 0 14 -13 18 -30z m531 2 c45 -4 61 -10
63 -23 3 -14 -4 -17 -32 -16 -39 1 -66 -16 -66 -42 0 -9 -3 -20 -6 -23 -4 -4
-6 -169 -5 -367 l1 -360 -27 -11 c-15 -5 -36 -9 -47 -7 -20 3 -21 9 -21 118 0
192 7 289 22 294 18 7 16 35 -3 43 -13 5 -14 23 -8 134 6 109 4 133 -10 163
-19 40 -36 55 -36 31 0 -9 -6 -15 -12 -12 -7 2 -12 10 -10 16 1 6 -5 14 -13
17 -8 4 -15 17 -15 30 0 23 2 24 83 23 45 -1 109 -4 142 -8z m-1055 -66 c0
-13 -4 -27 -10 -30 -6 -4 -10 8 -10 30 0 22 4 34 10 30 6 -3 10 -17 10 -30z
m-157 -55 c-9 -33 20 -64 71 -78 64 -17 66 -16 66 22 0 19 4 37 8 40 11 7 22
-213 22 -427 0 -164 -9 -198 -21 -80 -8 74 -23 93 -72 93 -52 0 -67 -15 -67
-69 0 -31 -5 -53 -15 -61 -9 -7 -18 -10 -21 -7 -11 10 -4 547 8 572 13 28 29
25 21 -5z m387 -267 c1 -302 -4 -333 -50 -303 -8 5 -10 10 -5 10 6 0 10 94 10
263 0 188 4 270 13 291 8 18 16 26 22 20 5 -5 10 -127 10 -281z m177 -25 c-3
-7 -5 -2 -5 12 0 14 2 19 5 13 2 -7 2 -19 0 -25z"/>
<path d="M3562 3749 c-75 -55 -111 -161 -79 -230 17 -37 89 -98 129 -109 18
-6 50 -10 70 -10 35 0 38 -3 39 -27 1 -27 1 -27 10 5 6 19 15 32 22 29 8 -2
14 -51 17 -163 3 -105 8 -153 14 -140 5 10 6 85 3 169 l-6 150 34 47 c40 55
58 96 56 128 0 13 6 36 14 51 14 27 13 30 -16 54 -17 14 -37 23 -45 20 -10 -3
-12 0 -9 10 5 11 0 14 -19 12 -19 -2 -26 2 -26 13 0 12 -3 13 -8 5 -6 -10 -19
-9 -56 2 -71 22 -97 19 -144 -16z"/>
<path d="M3443 3390 c-32 -29 -63 -94 -63 -128 0 -37 38 -65 95 -72 35 -4 41
-9 46 -35 6 -25 7 -22 8 18 1 39 4 47 19 47 38 0 55 118 23 159 -26 34 -98 40
-128 11z"/>
<path d="M3341 3105 c-26 -34 -26 -46 -1 -95 11 -22 20 -47 20 -57 0 -10 7
-28 15 -40 9 -12 27 -72 40 -133 21 -93 24 -118 15 -153 -19 -74 -53 -167 -62
-167 -4 0 -8 -9 -8 -20 0 -11 -13 -47 -30 -80 -16 -33 -30 -71 -30 -85 0 -31
16 -65 31 -65 6 0 22 -9 36 -20 43 -34 133 -22 133 18 0 9 12 54 28 98 l27 82
40 -81 c22 -45 49 -86 60 -92 11 -5 24 -16 28 -22 17 -27 78 -9 89 27 3 8 -3
35 -13 60 -17 41 -17 43 -1 20 50 -71 98 -124 140 -155 58 -42 185 -85 250
-85 66 0 234 43 286 74 107 62 199 160 223 236 17 57 15 101 -12 237 -44 216
-104 311 -238 378 -53 26 -82 35 -121 35 -119 0 -262 -63 -370 -162 -58 -53
-127 -150 -133 -187 -4 -30 -26 -71 -38 -71 -18 0 -25 -33 -26 -125 l0 -80
-34 105 c-19 58 -35 117 -35 132 0 15 20 79 45 142 54 141 73 226 58 258 -6
13 -15 35 -22 51 -10 25 -15 27 -65 27 -54 0 -56 -1 -79 -42 -14 -24 -31 -67
-38 -96 -13 -54 -28 -53 -29 3 -1 42 -34 110 -62 128 -12 9 -39 18 -59 22 -32
6 -39 3 -58 -20z m97 -32 c14 -12 24 -40 31 -85 13 -75 46 -141 68 -136 10 2
24 35 39 86 36 123 48 142 88 142 34 0 57 -24 32 -33 -8 -3 -17 -18 -20 -34
-4 -15 -30 -88 -58 -161 -27 -74 -48 -144 -45 -155 6 -28 102 -322 119 -365
11 -29 10 -34 -10 -54 -21 -22 -22 -22 -36 -3 -7 11 -28 55 -46 100 -34 82
-46 98 -67 90 -7 -2 -15 0 -18 6 -4 5 -11 6 -17 3 -15 -10 -57 -109 -69 -165
-9 -41 -15 -50 -37 -55 -15 -3 -33 -7 -39 -9 -27 -9 -26 44 1 90 34 58 90 204
107 278 6 31 16 57 21 57 4 0 8 11 8 25 0 14 -6 25 -13 25 -9 0 -21 34 -36 99
-12 55 -29 105 -36 111 -8 7 -15 26 -15 42 0 16 -9 41 -20 56 -13 17 -18 35
-14 45 8 22 56 22 82 0z m901 -122 c8 -5 -5 -7 -35 -4 -68 6 -77 11 -24 12 25
0 51 -3 59 -8z m-27 -62 c91 -20 142 -52 192 -123 61 -84 76 -124 76 -194 0
-198 -94 -361 -238 -410 -66 -23 -194 -34 -261 -23 -78 13 -184 78 -231 143
-65 90 -73 208 -21 336 28 69 42 90 89 131 80 70 147 108 232 130 90 24 95 24
162 10z"/>
<path d="M4195 2747 c-14 -11 -17 -22 -13 -53 13 -86 45 -119 78 -79 21 25
-12 145 -39 145 -4 0 -15 -6 -26 -13z"/>
<path d="M4013 2684 c-17 -7 -16 -57 1 -99 12 -27 21 -35 40 -35 34 0 44 39
25 94 -14 40 -35 53 -66 40z"/>
<path d="M4372 2651 c-11 -6 -11 -19 -1 -68 22 -109 -25 -202 -125 -249 -94
-44 -176 -25 -249 55 -34 37 -43 63 -49 136 -3 24 -8 31 -30 33 -27 3 -28 2
-28 -47 0 -63 32 -149 68 -183 68 -65 186 -99 274 -80 72 17 109 41 146 98 57
86 75 182 48 269 -12 40 -30 52 -54 36z"/>
<path d="M2250 3111 l-45 -6 -6 -290 c-5 -280 0 -410 20 -505 7 -37 21 -56 76
-107 l67 -63 65 0 c63 0 66 1 118 47 30 27 57 60 60 74 l6 26 42 -39 c37 -34
48 -38 93 -38 68 0 78 13 59 76 -17 56 -21 289 -5 279 5 -3 9 -62 9 -136 0
-103 3 -135 15 -155 9 -13 22 -24 29 -24 7 0 18 -9 25 -20 10 -16 16 -18 32
-10 10 5 33 10 50 10 l32 0 -5 208 c-3 114 -6 278 -6 365 0 174 -12 236 -56
277 -21 19 -39 24 -141 30 -121 9 -156 3 -172 -26 -9 -16 -10 -16 -16 3 -9 27
-111 42 -134 19 -11 -11 -15 -81 -19 -372 -4 -338 -5 -360 -24 -379 -12 -13
-22 -16 -29 -9 -6 6 -11 138 -12 344 -3 322 -4 337 -25 383 -15 32 -28 47 -40
45 -10 0 -38 -4 -63 -7z m62 -69 c-9 -3 -12 -72 -12 -288 0 -220 -3 -284 -12
-285 -10 0 -10 -2 0 -6 6 -2 12 -10 12 -16 0 -7 11 -34 25 -61 30 -59 31 -72
8 -85 -16 -9 -15 -10 5 -11 12 0 25 -7 28 -15 9 -23 42 -18 50 7 3 12 15 29
26 38 27 21 40 129 37 310 -1 80 -1 214 0 298 l1 152 39 0 c41 0 63 -16 41
-30 -9 -6 -12 -80 -11 -313 1 -371 -2 -389 -73 -463 -49 -51 -55 -54 -102 -54
-44 0 -54 4 -83 34 -20 20 -38 52 -44 78 -5 24 -11 199 -13 396 -2 304 -1 353
12 348 8 -3 24 -2 36 3 18 7 25 5 33 -12 7 -15 6 -22 -3 -25z m583 18 c14 -12
16 -32 11 -161 -4 -113 -9 -154 -21 -173 -10 -15 -12 -26 -6 -30 29 -18 41
-76 46 -220 6 -161 1 -180 -41 -170 -16 4 -24 2 -24 -7 0 -11 -3 -11 -10 1 -5
8 -10 74 -10 146 0 147 -1 149 -69 160 l-43 7 4 -159 3 -159 -38 -6 c-21 -3
-39 -3 -41 0 -1 3 0 137 3 298 4 185 2 325 -5 385 -6 51 -9 97 -6 102 8 14
228 2 247 -14z m-269 -448 c-3 -167 -7 -307 -11 -310 -10 -10 -25 22 -18 38 3
8 7 128 8 265 2 138 4 288 5 335 l2 85 9 -55 c5 -30 7 -192 5 -358z"/>
<path d="M2726 3002 c-3 -6 -6 -54 -5 -107 1 -78 5 -103 21 -131 20 -35 59
-47 74 -23 3 6 7 58 8 116 2 83 -1 109 -13 123 -18 21 -76 36 -85 22z m62
-144 c-1 -107 -6 -95 -10 30 -2 39 0 72 5 72 4 0 6 -46 5 -102z"/>
<path d="M3020 3106 c-11 -11 -15 -873 -4 -900 3 -9 14 -16 24 -16 10 0 22 -9
25 -20 6 -18 15 -20 120 -20 l115 0 6 27 c4 14 2 34 -5 44 -6 10 -11 27 -11
37 0 30 -21 42 -72 42 l-49 0 3 133 c3 109 6 132 18 133 8 1 34 2 57 3 37 1
43 5 49 26 4 14 -2 51 -12 85 -18 58 -20 60 -54 61 -19 1 -42 2 -51 1 -13 -1
-16 4 -12 21 3 12 10 28 16 35 6 8 6 12 -2 12 -7 0 -11 19 -11 49 0 77 4 81
70 81 50 0 60 3 65 20 6 20 -20 126 -36 144 -11 13 -237 14 -249 2z m230 -44
c0 -27 -42 -46 -85 -39 -28 5 -41 1 -57 -15 -19 -19 -20 -29 -15 -131 3 -68 9
-113 16 -115 6 -2 11 -10 11 -17 0 -22 41 -45 81 -45 24 0 39 -5 43 -16 4 -10
1 -14 -6 -11 -7 2 -18 -3 -24 -11 -6 -9 -30 -15 -57 -16 -26 -1 -52 -7 -58
-13 -8 -8 -10 -56 -7 -150 3 -114 8 -143 23 -168 27 -41 33 -45 87 -45 46 0
69 -13 52 -30 -5 -5 -53 -10 -107 -11 l-98 -2 -2 427 -2 426 103 0 c92 0 102
-2 102 -18z"/>
<path d="M3275 2110 c-3 -5 -1 -10 4 -10 6 0 11 5 11 10 0 6 -2 10 -4 10 -3 0
-8 -4 -11 -10z"/>
<path d="M1798 2003 c7 -3 16 -2 19 1 4 3 -2 6 -13 5 -11 0 -14 -3 -6 -6z"/>
<path d="M3120 1990 c-12 -8 -11 -10 8 -10 12 0 22 5 22 10 0 13 -11 13 -30 0z"/>
<path d="M3650 1610 c0 -5 7 -10 16 -10 8 0 12 5 9 10 -3 6 -10 10 -16 10 -5
0 -9 -4 -9 -10z"/>
<path d="M1426 1496 c7 -18 29 -21 39 -6 3 6 2 10 -4 10 -5 0 -17 3 -25 6 -12
5 -15 2 -10 -10z"/>
<path d="M1580 1495 c0 -8 9 -15 20 -15 11 0 20 2 20 5 0 2 -9 9 -20 15 -16 9
-20 8 -20 -5z"/>
</g>
</svg>
